<?xml version="1.0" encoding="UTF-8"?>
<svg xmlns="http://www.w3.org/2000/svg" version="1.2" viewBox="0 0 946 896" width="946" height="896">
  <style>.a{fill:#f1fbff}.b{fill:#fff;stroke:#263238;stroke-linecap:round;stroke-linejoin:round;stroke-width:2}.c{fill:#e0e0e0}.d{fill:#fff}.e{fill:#eaeded}.f{fill:#465b64}.g{fill:#374850}.h{fill:#273337}.i{fill:#89bdde}.j{fill:#7db3d1}.k{fill:#6ba2c1}.l{fill:#cee9f4;stroke:#263238;stroke-linecap:round;stroke-linejoin:round;stroke-width:2}.m{fill:none;stroke:#263238;stroke-linecap:round;stroke-linejoin:round}.n{fill:none;stroke:#263238;stroke-width:4}.o{fill:#89bdde;stroke:#263238;stroke-width:2}.p{fill:none;stroke:#263238}.q{fill:#263238;stroke:#263238;stroke-width:2}.r{fill:#7d7d7d;stroke:#263238;stroke-linecap:round;stroke-linejoin:round;stroke-width:2}.s{fill:#595959;stroke:#263238;stroke-linecap:round;stroke-linejoin:round;stroke-width:2}.t{fill:#a8a8a8;stroke:#263238;stroke-linecap:round;stroke-linejoin:round;stroke-width:2}.u{fill:#263238;stroke:#263238;stroke-linecap:round;stroke-linejoin:round;stroke-width:2}.v{fill:#263238}.w{fill:#89bdde;stroke:#263238;stroke-linecap:round;stroke-linejoin:round;stroke-width:2}.x{fill:none;stroke:#263238;stroke-linecap:round;stroke-linejoin:round;stroke-width:2}.y{fill:#9c9c9c;stroke:#263238;stroke-linecap:round;stroke-linejoin:round;stroke-width:2}</style>
  <path class="a" d="m938.4 553.8c11.7 107.4-29.7 219.6-134.1 247.5-55 14.6-108.2 28.3-162.4 46-26.7 8.7-53.7 16.3-81.1 22-115.4 23.7-246.1 21.6-361.1-6.9-90.4-22.5-187.3-74.7-198.7-185.2-12-116.3 120.1-285.6 156-413.5 35.9-127.8 134-312.2 368-251.9 234 60.3 362 372.5 362 372.5 22.6 55 44.7 109.1 51.4 169.5z"></path>
  <path class="b" d="m816.5 556.1h-371v-513.7h371z"></path>
  <path fill-rule="evenodd" class="c" d="m801.6 62.2c1.3 1.1 2.1 2.8 2.1 4.7l-0.2 29.8c0 2.1-1.1 4.2-2.8 5.7-1.6 1.4-3.5 2.1-5.4 2.1l-322.6 0.4c-3.6 0-6.3-2.7-6.3-6.3l0.2-29.8c0-2.1 1.1-4.1 2.8-5.7 1.6-1.3 3.5-2.1 5.4-2.1l322.6-0.4c1.6 0 3.1 0.6 4.2 1.6zm-330.1 38.5c0.8 0.7 1.9 1.2 3 1.2l322.6-0.4c0.4 0 1.3-0.1 1.8-0.6 0.5-0.4 1.1-1.3 1.1-2.6l0.2-29.9c0-2.5-2.1-4.7-4.6-4.7l-322.6 0.4c-0.4 0-1.3 0-1.8 0.6-0.5 0.4-1.1 1.3-1.1 2.6l-0.2 29.8c0 1.4 0.6 2.8 1.6 3.6z"></path>
  <path class="c" d="m802.7 80.7l-1.8 3.1-333.5 0.4 1.8-3.1z"></path>
  <path fill-rule="evenodd" class="c" d="m801.2 125.6c1.3 1.1 2.1 2.8 2 4.7l-2.6 388.1c0 2.1-1 4.2-2.8 5.7-1.6 1.4-3.5 2.1-5.3 2.1l-322.7 0.4c-3.5 0-6.3-2.8-6.3-6.3l2.7-388.1c0-2.1 1-4.1 2.8-5.7 1.5-1.3 3.4-2.1 5.3-2.1l322.7-0.3c1.6 0 3.1 0.5 4.2 1.5zm-332.5 396.8c0.8 0.7 1.8 1.1 2.9 1.1l322.6-0.3c0.5 0 1.3-0.1 1.9-0.6 0.4-0.4 1-1.4 1-2.7l2.6-388c0.1-2.6-2-4.8-4.5-4.8l-322.6 0.4c-0.5 0-1.3 0.1-1.9 0.6-0.5 0.4-1 1.3-1 2.6l-2.7 388.1c0 1.4 0.7 2.7 1.7 3.6z"></path>
  <path class="c" d="m802.3 144.1l-1.8 3.1-333.5 0.4 1.7-3.1z"></path>
  <path class="c" d="m802.1 164.1l-1.7 3.1-333.6 0.3 1.8-3z"></path>
  <path class="c" d="m802 184.1l-1.8 3-333.5 0.4 1.7-3z"></path>
  <path class="c" d="m801.9 204.1l-1.8 3-333.6 0.4 1.8-3z"></path>
  <path class="c" d="m801.7 224.1l-1.7 3-333.6 0.4 1.8-3.1z"></path>
  <path class="c" d="m801.6 244l-1.8 3.1-333.5 0.4 1.7-3.1z"></path>
  <path class="c" d="m801.5 264l-1.8 3.1-333.6 0.4 1.8-3.1z"></path>
  <path class="c" d="m801.3 284l-1.7 3.1-333.6 0.3 1.8-3z"></path>
  <path class="c" d="m801.2 304l-1.8 3-333.5 0.4 1.7-3z"></path>
  <path class="c" d="m801 324l-1.7 3-333.6 0.4 1.8-3z"></path>
  <path class="c" d="m800.9 344l-1.8 3-333.5 0.4 1.8-3.1z"></path>
  <path class="c" d="m800.8 363.9l-1.8 3.1-333.5 0.4 1.7-3.1z"></path>
  <path class="c" d="m800.6 383.9l-1.7 3.1-333.6 0.3 1.8-3z"></path>
  <path class="c" d="m800.5 403.9l-1.8 3-333.5 0.4 1.7-3z"></path>
  <path class="c" d="m800.4 423.9l-1.8 3-333.6 0.4 1.8-3z"></path>
  <path class="c" d="m800.2 443.9l-1.7 3-333.6 0.4 1.8-3.1z"></path>
  <path class="c" d="m800.1 463.8l-1.8 3.1-333.5 0.4 1.7-3.1z"></path>
  <path class="c" d="m800 483.8l-1.8 3.1-333.6 0.4 1.8-3.1z"></path>
  <path class="c" d="m799.8 503.8l-1.7 3.1-333.6 0.3 1.8-3z"></path>
  <path class="d" d="m803.2 403.9h-163.3v-136.4h163.3z"></path>
  <path class="d" d="m584.1 244h-124v-126h124z"></path>
  <path class="e" d="m801.6 387.1h-144.9v-102.9h144.9z"></path>
  <path class="f" d="m794.9 290.4v90.7h-131.6v-90.7z"></path>
  <path class="g" d="m794.9 365v16.1h-87.1v-31.6l6.9-5.8 31.6-26.4z"></path>
  <path class="h" d="m794.9 365.1v16h-131.6v-16.1l38.4-32.1 13 10.8 26 21.4z"></path>
  <path class="g" d="m693.2 312.9c0 4.9-4 9-9 9-4.9 0-9-4.1-9-9 0-5 4.1-9 9-9 5 0 9 4 9 9z"></path>
  <path class="e" d="m569.2 228h-103.7v-103.7h103.7z"></path>
  <path class="i" d="m564.4 129.1v94.1h-94.1v-94.1z"></path>
  <path class="j" d="m564.4 195.1v16.3h-62.3v-28.2l5-4.5 22.6-20.1z"></path>
  <path class="k" d="m564.4 195.2v28h-94.1v-28.1l27.5-24.6 9.3 8.2 18.6 16.5z"></path>
  <path class="j" d="m497.4 151.6c0 5-4 9-9 9-5 0-9-4-9-9 0-5 4-9.1 9-9.1 5 0 9 4.1 9 9.1z"></path>
  <path class="l" d="m756.9 507.7l-1.6-13.4c0 0-7.1 0.4-9.8-5.7-1.7-3.8-3.4-11.4-0.9-15.1 3.3-5.1 10.6-4.4 12.7 1.7 1.9 5.4 2.9 7.8 2.9 7.8-0.5-7.9-6.4-39.6 11.4-34.7 7.3 1.9 9.2 8.9 9.6 14.4 0.3 5.6-0.5 19.9-0.5 19.9 0 0 4.8 0.5 5.1-7.5 0.4-7.9 8.1-11.5 11.5-7.7 3.4 3.7 4.9 17.1 1.2 21.3-3.7 4.1-15.5 5.6-15.5 5.6l0.8 13.4z"></path>
  <path class="m" d="m765.8 487.7c0 0 0-16.3-0.8-25.4-0.8-9.2 2.1-11.8 2.1-11.8"></path>
  <path class="m" d="m774.9 456.6c0 0 3.5-0.5 2.4 7.8-1.1 8.3 0 20.9 0 20.9"></path>
  <path class="m" d="m759.3 498.1l-0.5-5.8c0 0-1.3 0-5.1-0.8-3.7-0.9-4.3-5.1-5.9-10.8-1.6-5.6 1.9-6.4 1.9-6.4"></path>
  <path class="m" d="m797.4 474.6c0 0 1.3 7.7-0.8 12.3-2.2 4.6-13.2 4.3-13.2 4.3"></path>
  <path class="m" d="m754.2 475.8c0 0.5-0.4 0.9-0.9 0.9-0.5 0-0.9-0.4-0.9-0.9 0-0.5 0.4-1 0.9-1 0.5 0 0.9 0.5 0.9 1z"></path>
  <path class="m" d="m757.5 486.6c0 0.5-0.5 1-1 1-0.5 0-0.9-0.5-0.9-1 0-0.5 0.4-0.9 0.9-0.9 0.5 0 1 0.4 1 0.9z"></path>
  <path class="m" d="m752.8 482.2c0 0.5-0.4 0.9-1 0.9-0.5 0-0.9-0.4-0.9-0.9 0-0.5 0.4-0.9 0.9-0.9 0.6 0 1 0.4 1 0.9z"></path>
  <path class="m" d="m771.8 471.1c0 0.5-0.4 0.9-0.9 0.9-0.6 0-1-0.4-1-0.9 0-0.5 0.4-0.9 1-0.9 0.5 0 0.9 0.4 0.9 0.9z"></path>
  <path class="m" d="m763 462c0 0.5-0.5 0.9-1 0.9-0.5 0-0.9-0.4-0.9-0.9 0-0.5 0.4-1 0.9-1 0.5 0 1 0.5 1 1z"></path>
  <path class="m" d="m774.9 494.7c0 0.5-0.4 0.9-1 0.9-0.5 0-0.9-0.4-0.9-0.9 0-0.6 0.4-1 0.9-1 0.6 0 1 0.4 1 1z"></path>
  <path class="m" d="m764.7 493.3c0 0.5-0.4 1-0.9 1-0.6 0-1-0.5-1-1 0-0.5 0.4-0.9 1-0.9 0.5 0 0.9 0.4 0.9 0.9z"></path>
  <path class="m" d="m773.4 453.4c0 0.5-0.4 0.9-0.9 0.9-0.6 0-1-0.4-1-0.9 0-0.5 0.4-0.9 1-0.9 0.5 0 0.9 0.4 0.9 0.9z"></path>
  <path class="m" d="m792.4 471.2c0 0.5-0.4 1-0.9 1-0.5 0-1-0.5-1-1 0-0.5 0.5-0.9 1-0.9 0.5 0 0.9 0.4 0.9 0.9z"></path>
  <path class="m" d="m790 484c0 0.5-0.4 0.9-0.9 0.9-0.5 0-1-0.4-1-0.9 0-0.6 0.5-1 1-1 0.5 0 0.9 0.4 0.9 1z"></path>
  <path class="m" d="m773.4 483.7c0 0.5-0.4 0.9-0.9 0.9-0.6 0-1-0.4-1-0.9 0-0.5 0.4-1 1-1 0.5 0 0.9 0.5 0.9 1z"></path>
  <path class="b" d="m789 538.6h-38.6l-4.8-39.6h48.2z"></path>
  <path class="n" d="m76.3 426.2l36.9 353.4"></path>
  <path class="n" d="m107.2 712l-16.7-17.7"></path>
  <path class="o" d="m59.9 680.1c2.2-8 24.8 1.5 29 5.3 7.2 6.4 6.7 14.2 6.7 14.2-14.9 6.1-38-10.9-35.7-19.5z"></path>
  <path class="p" d="m95.6 699.6l-21.5-13.4"></path>
  <path class="n" d="m111.4 752.2l-16.7-17.7"></path>
  <path class="o" d="m64.1 720.3c2.2-8 24.8 1.5 29 5.3 7.2 6.4 6.7 14.2 6.7 14.2-14.9 6.1-38-10.9-35.7-19.5z"></path>
  <path class="p" d="m99.8 739.8l-21.5-13.4"></path>
  <path class="n" d="m97 613.9l-16.7-17.7"></path>
  <path class="o" d="m49.7 582c2.1-8 24.7 1.5 29 5.3 7.1 6.4 6.7 14.2 6.7 14.2-14.9 6.1-38-10.9-35.7-19.5z"></path>
  <path class="p" d="m85.4 601.5l-21.5-13.4"></path>
  <path class="n" d="m101.2 654.1l-16.7-17.7"></path>
  <path class="o" d="m53.9 622.2c2.1-8 24.7 1.5 29 5.3 7.1 6.4 6.7 14.2 6.7 14.2-14.9 6.1-38.1-10.9-35.7-19.5z"></path>
  <path class="p" d="m89.6 641.7l-21.5-13.4"></path>
  <path class="n" d="m90.2 548.6l-16.7-17.7"></path>
  <path class="o" d="m42.9 516.7c2.1-8 24.7 1.5 29 5.3 7.1 6.4 6.7 14.2 6.7 14.2-14.9 6.1-38.1-10.9-35.7-19.5z"></path>
  <path class="p" d="m78.6 536.2l-21.6-13.4"></path>
  <path class="n" d="m83.3 483l-16.7-17.6"></path>
  <path class="o" d="m36 451.1c2.2-8 24.8 1.5 29.1 5.4 7.1 6.3 6.6 14.1 6.6 14.1-14.9 6.1-38-10.9-35.7-19.5z"></path>
  <path class="p" d="m71.7 470.6l-21.5-13.4"></path>
  <path class="n" d="m104.4 688.2l12.8-20.7"></path>
  <path class="o" d="m113.3 673.7c0 0-2.1-7.5 3.6-15.2 3.4-4.7 23.5-18.6 27.2-11.3 4.1 8-15 29.4-30.8 26.5z"></path>
  <path class="p" d="m113.3 673.7l19.3-18.5"></path>
  <path class="n" d="m93.4 582.4l12.7-20.7"></path>
  <path class="o" d="m102.2 567.9c0 0-2-7.5 3.6-15.2 3.4-4.7 23.6-18.6 27.3-11.3 4.1 8-15 29.4-30.9 26.5z"></path>
  <path class="p" d="m102.2 567.9l19.4-18.5"></path>
  <path class="n" d="m88.5 535.9l12.8-20.7"></path>
  <path class="o" d="m97.4 521.4c0 0-2.1-7.5 3.6-15.2 3.4-4.7 23.5-18.6 27.3-11.3 4 8-15.1 29.4-30.9 26.5z"></path>
  <path class="p" d="m97.4 521.4l19.3-18.5"></path>
  <path class="n" d="m81.4 467.8l12.7-20.7"></path>
  <path class="o" d="m90.3 453.3c0 0-2.1-7.6 3.6-15.3 3.4-4.6 23.5-18.6 27.2-11.2 4.1 8-15 29.4-30.8 26.5z"></path>
  <path class="p" d="m90.3 453.3l19.3-18.5"></path>
  <path class="o" d="m76 424.2c0 0-2.1-7.5 3.6-15.2 3.4-4.7 23.5-18.6 27.3-11.3 4 8-15.1 29.4-30.9 26.5z"></path>
  <path class="p" d="m76 424.2l19.4-18.5"></path>
  <path class="o" d="m77.1 425c0 0-7.7 1.3-14.8-5.2-4.2-3.8-16-25.3-8.3-28.3 8.4-3.2 27.6 18.1 23.1 33.5z"></path>
  <path class="p" d="m77.1 425l-16.4-21.2"></path>
  <path class="n" d="m173.6 474.9l-36.7 353.4"></path>
  <path class="n" d="m145 760.9l-12.7-20.7"></path>
  <path class="o" d="m105.3 719.9c3.7-7.3 23.9 6.6 27.3 11.3 5.7 7.7 3.6 15.2 3.6 15.2-15.8 2.9-35-18.5-30.9-26.5z"></path>
  <path class="p" d="m136.2 746.4l-18.3-17.5"></path>
  <path class="n" d="m155.2 662.8l-12.7-20.7"></path>
  <path class="o" d="m115.5 621.8c3.7-7.3 23.9 6.6 27.3 11.3 5.6 7.7 3.6 15.2 3.6 15.2-15.9 2.9-35-18.5-30.9-26.5z"></path>
  <path class="p" d="m146.4 648.3l-18.3-17.5"></path>
  <path class="n" d="m151 703l-12.7-20.7"></path>
  <path class="o" d="m111.3 662c3.7-7.3 23.9 6.6 27.3 11.3 5.7 7.7 3.6 15.2 3.6 15.2-15.8 2.9-35-18.5-30.9-26.5z"></path>
  <path class="p" d="m142.2 688.5l-18.3-17.5"></path>
  <path class="n" d="m162 597.5l-12.7-20.7"></path>
  <path class="o" d="m122.2 556.5c3.8-7.3 23.9 6.6 27.3 11.3 5.7 7.7 3.6 15.2 3.6 15.2-15.8 2.9-34.9-18.5-30.9-26.5z"></path>
  <path class="p" d="m153.1 583l-18.2-17.5"></path>
  <path class="n" d="m168.8 531.9l-12.7-20.7"></path>
  <path class="o" d="m129.1 490.9c3.7-7.3 23.8 6.6 27.3 11.3 5.6 7.7 3.5 15.2 3.5 15.2-15.8 2.9-34.9-18.5-30.8-26.5z"></path>
  <path class="p" d="m159.9 517.4l-18.2-17.5"></path>
  <path class="n" d="m147.2 737.1l16.7-17.7"></path>
  <path class="o" d="m158.8 724.7c0 0-0.5-7.8 6.7-14.2 4.2-3.8 26.8-13.3 29-5.4 2.3 8.7-20.8 25.7-35.7 19.6z"></path>
  <path class="p" d="m158.8 724.7l22.8-14.1"></path>
  <path class="n" d="m158.2 631.3l16.7-17.7"></path>
  <path class="o" d="m169.8 618.9c0 0-0.5-7.8 6.6-14.2 4.3-3.8 26.9-13.3 29.1-5.4 2.3 8.7-20.8 25.7-35.7 19.6z"></path>
  <path class="p" d="m169.8 618.9l22.7-14.1"></path>
  <path class="n" d="m163 584.8l16.7-17.7"></path>
  <path class="o" d="m174.6 572.4c0 0-0.5-7.8 6.7-14.2 4.2-3.8 26.8-13.3 29-5.4 2.3 8.7-20.8 25.7-35.7 19.6z"></path>
  <path class="p" d="m174.6 572.4l22.8-14.1"></path>
  <path class="n" d="m170 516.6l16.8-17.6"></path>
  <path class="o" d="m181.7 504.3c0 0-0.5-7.9 6.6-14.2 4.3-3.9 26.9-13.4 29.1-5.4 2.3 8.6-20.8 25.6-35.7 19.6z"></path>
  <path class="p" d="m181.7 504.3l22.7-14.2"></path>
  <path class="o" d="m173.7 472.9c0 0-0.5-7.8 6.6-14.2 4.3-3.9 26.9-13.4 29.1-5.4 2.3 8.6-20.8 25.6-35.7 19.6z"></path>
  <path class="p" d="m173.7 472.9l22.8-14.2"></path>
  <path class="o" d="m174.6 473.9c0 0-7.8-0.4-13.4-8.1-3.3-4.7-10.4-28.1-2.3-29.4 8.8-1.5 23.3 23.3 15.7 37.5z"></path>
  <path class="p" d="m174.6 473.9l-11.6-24.1"></path>
  <path class="n" d="m131.6 330.9v447"></path>
  <path class="n" d="m131.9 710.7l-14.8-19.3"></path>
  <path class="o" d="m88.2 674c2.9-7.7 24.4 4.1 28.3 8.4 6.4 7.1 5.1 14.8 5.1 14.8-15.4 4.5-36.7-14.8-33.4-23.2z"></path>
  <path class="p" d="m121.6 697.2l-20-15.6"></path>
  <path class="n" d="m131.9 626.7l-14.8-19.3"></path>
  <path class="o" d="m88.2 590c2.9-7.7 24.4 4.1 28.3 8.4 6.4 7.1 5.1 14.8 5.1 14.8-15.4 4.5-36.7-14.8-33.4-23.2z"></path>
  <path class="p" d="m121.6 613.2l-20-15.6"></path>
  <path class="n" d="m131.9 528.1l-14.8-19.3"></path>
  <path class="o" d="m88.2 491.4c2.9-7.7 24.4 4.1 28.3 8.4 6.4 7 5.1 14.8 5.1 14.8-15.4 4.5-36.7-14.8-33.4-23.2z"></path>
  <path class="p" d="m121.6 514.6l-20-15.6"></path>
  <path class="n" d="m131.9 462.4l-14.8-19.3"></path>
  <path class="o" d="m88.2 425.7c2.9-7.6 24.4 4.2 28.3 8.4 6.4 7.1 5.1 14.8 5.1 14.8-15.4 4.5-36.7-14.8-33.4-23.2z"></path>
  <path class="p" d="m121.6 448.9l-20-15.6"></path>
  <path class="n" d="m131.9 396.5l-14.8-19.3"></path>
  <path class="o" d="m88.2 359.8c2.9-7.7 24.4 4.1 28.3 8.4 6.4 7 5.1 14.8 5.1 14.8-15.4 4.5-36.7-14.8-33.4-23.2z"></path>
  <path class="p" d="m121.6 383l-20-15.6"></path>
  <path class="n" d="m131.6 736.4l14.8-19.3"></path>
  <path class="o" d="m141.9 722.8c0 0-1.3-7.7 5.1-14.7 3.9-4.3 25.4-16.1 28.3-8.4 3.3 8.4-18 27.7-33.4 23.1z"></path>
  <path class="p" d="m141.9 722.8l21.2-16.3"></path>
  <path class="n" d="m131.6 602.8l14.8-19.3"></path>
  <path class="o" d="m141.9 589.2c0 0-1.3-7.7 5.1-14.8 3.9-4.2 25.4-16 28.3-8.3 3.3 8.3-18 27.6-33.4 23.1z"></path>
  <path class="p" d="m141.9 589.2l21.2-16.4"></path>
  <path class="n" d="m131.6 536.8l14.8-19.3"></path>
  <path class="o" d="m141.9 523.3c0 0-1.3-7.7 5.1-14.8 3.9-4.3 25.4-16.1 28.3-8.4 3.3 8.4-18 27.7-33.4 23.2z"></path>
  <path class="p" d="m141.9 523.3l21.2-16.4"></path>
  <path class="n" d="m131.6 449.7l14.8-19.3"></path>
  <path class="o" d="m141.9 436.1c0 0-1.3-7.7 5.1-14.8 3.9-4.2 25.4-16 28.3-8.3 3.3 8.3-18 27.6-33.4 23.1z"></path>
  <path class="p" d="m141.9 436.1l21.2-16.4"></path>
  <path class="n" d="m131.6 381.1l14.8-19.3"></path>
  <path class="o" d="m141.9 367.6c0 0-1.3-7.7 5.1-14.8 3.9-4.2 25.4-16 28.3-8.3 3.3 8.3-18 27.6-33.4 23.1z"></path>
  <path class="p" d="m141.9 367.6l21.2-16.4"></path>
  <path class="o" d="m130.7 337.2c0 0-1.3-7.7 5.2-14.8 3.8-4.2 25.3-16 28.3-8.3 3.2 8.3-18.1 27.6-33.5 23.1z"></path>
  <path class="p" d="m130.7 337.2l21.2-16.4"></path>
  <path class="o" d="m131.7 338.1c0 0-7.8 0.5-14.1-6.6-3.9-4.3-13.3-26.9-5.4-29.1 8.7-2.3 25.6 20.9 19.5 35.7z"></path>
  <path class="p" d="m131.7 338.1l-14-22.7"></path>
  <path class="q" d="m150 893.9h-47.4l-5.9-119.6h59.2z"></path>
  <path class="r" d="m577.7 408h146l-34 125.2h-146z"></path>
  <path class="b" d="m581.9 412.7h135.1l-31.5 115.9h-135.1z"></path>
  <path class="r" d="m485 526.6h204.7v6.6h-204.7z"></path>
  <path class="s" d="m595.6 526.6h94.1v6.6h-94.1z"></path>
  <path class="c" d="m707.8 422.2h-120.8v-3.4h120.8z"></path>
  <path class="c" d="m706.3 429h-122.9v-3.4h122.9z"></path>
  <path class="c" d="m704.7 435.8h-123v-3.4h123z"></path>
  <path class="c" d="m703.1 442.6h-123v-3.4h123z"></path>
  <path class="c" d="m700.4 449.4h-123.9v-3.4h123.9z"></path>
  <path class="c" d="m698.5 456.1h-123.6v-3.3h123.6z"></path>
  <path class="c" d="m696.2 462.9h-123v-3.3h123z"></path>
  <path class="c" d="m694.6 469.7h-123v-3.3h123z"></path>
  <path class="c" d="m692.9 476.5h-122.9v-3.3h122.9z"></path>
  <path class="c" d="m690.9 483.3h-122.3v-3.3h122.3z"></path>
  <path class="c" d="m689.3 490.1h-122.3v-3.4h122.3z"></path>
  <path class="c" d="m687.5 496.9h-124.1v-3.4h124.1z"></path>
  <path class="c" d="m685.6 503.7h-123.7v-3.4h123.7z"></path>
  <path class="c" d="m684.3 510.5h-123.9v-3.4h123.9z"></path>
  <path class="c" d="m682.6 517.3h-123.8v-3.4h123.8z"></path>
  <path class="c" d="m680.9 524h-123.6v-3.3h123.6z"></path>
  <path class="b" d="m430.6 893.1h-11v-349.2h11z"></path>
  <path class="t" d="m410.2 543.9h9.4v349.2h-9.4z"></path>
  <path class="b" d="m712.4 893.1h-11v-166.5h11z"></path>
  <path class="t" d="m692 726.6h9.4v166.5h-9.4z"></path>
  <path class="b" d="m830.1 893.1h-11v-166.5h11z"></path>
  <path class="t" d="m809.8 726.6h9.3v166.5h-9.3z"></path>
  <path class="t" d="m699.6 736.1h-107.3v-188.8h107.3z"></path>
  <path class="b" d="m699.6 547.3h141.5v188.8h-141.5z"></path>
  <path class="u" d="m841.1 547.3v9.2h-141.5-107.3v-9.2h107.3z"></path>
  <path class="b" d="m693 602.2h-91.5v-44.1h91.5z"></path>
  <path class="v" d="m659.3 584.3h-24.1v-8.3h24.1z"></path>
  <path class="b" d="m693 662.9h-91.5v-44.1h91.5z"></path>
  <path class="v" d="m659.3 644.2h-24.1v-8.3h24.1z"></path>
  <path class="b" d="m693 723.6h-91.5v-44.1h91.5z"></path>
  <path class="v" d="m659.3 704.1h-24.1v-8.4h24.1z"></path>
  <path class="t" d="m855.7 549.9h-460.7v-10.9h460.7z"></path>
  <path class="b" d="m855.7 549.9h-139.1v-10.9h139.1z"></path>
  <path class="b" d="m450.8 638.3c0 0 56-20 68.7-0.7 12.6 19.3 7.2 48.2 8.5 72.2 1.4 24 8.9 109.2 8.9 109.2 0 0 12.7 13.4 15.3 16.7 2.7 3.3-19.3 31.3-25.3 31.3-6 0-10-8.6-12-16-2-7.3-40-112.5-46.8-132.1-20.3-58.7-34-68.2-34-68.2z"></path>
  <path class="w" d="m550.2 824.4c0 0 4 0.6 16.7 3.3 12.7 2.7 36 5.3 44 3.3 8-2 10-6.6 16.7-2.6 6.6 4-8 25.3-12.7 28.6-4.7 3.4-30.7 7.4-39.3 13.4-8.7 6-24.7 20.6-32 22.6-7.4 2-8.7 0-10.7-2.6-2-2.7-9.3-14-12.7-21.4-3.3-7.3-8.6-10.6-8.6-12.6 0-2 7.3-3.4 14-4 6.6-0.7 19.3-10.7 19.3-10.7 0 0-6-8-6.7-14-0.6-6 4.7-8.7 4.7-8.7z"></path>
  <path class="b" d="m566.2 866.4c22-11.4 42-10 48-16 6-6 12.7-14 10.7-22-0.1-0.5-0.2-0.9-0.3-1.3 0.9 0.2 1.9 0.6 3 1.3 6.6 4-8 25.3-12.7 28.6-4.7 3.4-30.7 7.4-39.3 13.4-8.7 6-24.7 20.6-32 22.6-7.4 2-8.7 0-10.7-2.6q-0.4-0.6-1.1-1.5c6.3-5.1 19.1-14.6 34.4-22.5z"></path>
  <path class="u" d="m485.9 768.7c-8-22.3-15.2-42.3-17.8-49.8-20.3-58.7-34-68.2-34-68.2l16.7-12.4c0 0 56-20 68.7-0.7 12.6 19.3 7.2 48.2 8.5 72.2 0.5 8.6 1.8 25 3.2 42.5z"></path>
  <path class="b" d="m498.6 308.8c0 0 3 7.8 2.4 14.5-0.6 6.6-6.7 9.6-7.3 7.8-0.6-1.8-0.6-6.6-0.6-9 0-2.5 0-2.5 0-2.5 0 0-1.2 2.5-5.4 6.7-4.3 4.2-6.7 3-8.5 3-1.8 0-2.4-6 0.6-10.3 3-4.2 12.7-13.9 18.8-10.2z"></path>
  <path class="b" d="m514.3 329.9c-8.5 5.5-9.1 6.1-16.9 10.3-7.9 4.2-17 6.1-23.6 8.5-6.7 2.4-9.1 4.8-9.1 4.8l-96.8 110.1-6-53.2c0 0 85.2-62.3 89.5-69 1.4-2.1 3.8-5.7 6.4-9.6 1-4.7 3.4-17 7.5-20.6 3.1-2.8 11.4-3.7 16.8-4.1q1.5-0.1 2.6-0.1c5.1-2.5 10.1-5 11.4-6.1 3.1-2.4 14-9.1 14-4.9 0 4.3-3.7 7.3-8.5 10.9-4.9 3.7-14.5 8.5-17.6 14.6-3 6-2.3 8.6-0.6 9 14 3.1 23-9.7 29.1-6 3.3 1.9 5.9 2.8 1.8 5.4z"></path>
  <path class="w" d="m427.4 396l-59.5 67.6-6-53.2c0 0 25.2-18.4 48.9-36.3z"></path>
  <path class="b" d="m381 575.3c0 0 42.7-2 104.7 8 62 10 85.2 20.7 83.3 32.7-7.6 48.7-121.2 208.9-121.2 208.9l2 22.7c0 0-4 5.3-18 6-14 0.7-31.4-19.3-31.4-19.3 0 0 15.7-16.2 21.7-35.5 6-19.4 54.2-144.1 54.2-144.1 0 0-63.3 14-133.3 1.3-70-12.7 38-80.7 38-80.7z"></path>
  <path class="u" d="m569 616c-4.6 29.5-48 99.8-81.6 150.7l-47-18.1c15.9-42 35.9-93.9 35.9-93.9 0 0-63.3 14-133.3 1.3-70-12.7 38-80.7 38-80.7 0 0 42.7-2 104.7 8 62 10 85.2 20.7 83.3 32.7z"></path>
  <path class="w" d="m461.1 849.6c7.3 9.3 42.7 23.3 48.7 28.7 6 5.3-7.4 13.3-10.7 14-3.3 0.6-32 4.6-58-3.4-19-5.8-41.3-11-51.8-13.3-3.3-0.7-5.1-4.1-3.9-7.2 2.3-6.3 6-15.8 7.7-20.1 2.7-6.7 3.3-14 3.3-18 0-4 6-4.7 6-4.7 0 0 6 4 14.7 8 8.7 4 21.3 6.7 21.3 6.7 0 0 1.4-4.7 3.4-9.4 2-4.6 6-6 6-6 0 0 6 15.4 13.3 24.7z"></path>
  <path class="b" d="m509.8 878.3c6 5.3-7.4 13.3-10.7 14-3.3 0.6-32 4.6-58-3.4-19-5.8-41.3-11-51.8-13.3-3.3-0.7-5.1-4.1-3.9-7.2 0.6-1.8 1.4-3.9 2.3-6.1 7.7 1.8 28.4 6.9 49.4 15.3 26.7 10.7 45.3 12 56 12 10.6 0 14-6.6 14-13.2 1.2 0.7 2.1 1.3 2.7 1.9z"></path>
  <path class="w" d="m352.8 387.4c13.3 10.9 11.5 13.3 15.1 41.7 3.6 28.5 18.8 138.5 18.8 138.5 0 0 7.8 6.7 9.6 9.7 1.9 3-2.4 12.1-8.4 26.6-6.1 14.6-24.2 52.7-41.2 56.9-16.9 4.2-56.2-1.2-71.3-4.8-15.2-3.7-23.6-21.8-25.4-42.4-1.9-20.6-9.7-114.3-10.3-125.2-0.6-10.9 6.6-68.4 6.6-68.4 24.2-52.6 93.2-43.5 106.5-32.6z"></path>
  <path class="x" d="m343.1 620.6q-3.3 2.5-6.8 4.7"></path>
  <path class="x" d="m383 572c0 0-12.8 25.2-34.1 43.9"></path>
  <path class="x" d="m373.7 573.3c0 0-20.7 19.4-41.4 31.4"></path>
  <path class="b" d="m390.3 239.2c0 0 6 12.7 7.9 21.8 1.8 9 2.4 17.5 6.6 19.3 4.2 1.8 12.1 2.4 10.9 7.3-1.2 4.8-9.1 12.7-9.1 12.7 0 0 1.8 29 1.2 34.5-0.6 5.4-32.6 5.4-34.4 5.4-1.9 0-20 43-20 43l-50.8-25.5 9.7-31.4c0 0-15.8-30.3-17-43.6-1.2-13.3 29.7-37.5 47.2-42.9 17.5-5.5 47.8-0.6 47.8-0.6z"></path>
  <path class="u" d="m363.3 359.2l-6.1-23.6 16.2 4.6z"></path>
  <path class="v" d="m396.3 273.4c0.8 3.4 0.4 6.4-0.9 6.7-1.3 0.4-3-2.2-3.8-5.6-0.9-3.4-0.5-6.4 0.8-6.7 1.3-0.3 3.1 2.2 3.9 5.6z"></path>
  <path class="x" d="m386.1 305.7c0 0 7.2 5.5 13.9 3.1"></path>
  <path class="u" d="m387.3 227.7c0 0 8.4 15.1 2.4 24.8-6.1 9.7-20.6 13.9-28.4 23-7.9 9.1-12.1 24.8-15.2 26-3 1.2-12.1-16.9-17.5-15.7-5.5 1.2-14.5 13.9-6.7 27.2 7.9 13.3 21.8 11.5 21.8 11.5 0 0-21.8 11.5-26 11.5-4.2 0-16.9-7.3-23-13.9-6-6.7-27.8-26.7-29-43-1.2-16.3 20.5-36.9 20.5-36.9 0 0-26-1.8-19.3-11.5 6.6-9.7 30.2-15.7 30.2-15.7 0 0-4.2-15.1 1.9-18.2 6-3 42.9 9.1 42.9 9.1 0 0-10.3-13.3 4.2-13.9 14.5-0.6 39.3 17.5 41.2 35.7z"></path>
  <path class="x" d="m339.1 293.4l77.2-31.2"></path>
  <path class="x" d="m396.2 257.8c1.6-0.7 3.4-1.1 5.3-1.1 7.5 0 13.6 6.1 13.6 13.6 0 5.1-2.8 9.6-7 11.9"></path>
  <path class="w" d="m354 398.9c-6.1-3-32.1-7.9-60.5-2.4-28.4 5.4-41.1 32.6-50.2 31.4-9.1-1.2-8.5-15.1-4.2-37.5 4.2-22.4 11.5-32.7 22.3-36.3 10.9-3.6 27.9-9.7 44.2-5.4 16.3 4.2 52 24.2 56.9 29 4.8 4.8 5.4 22.4 5.4 22.4 0 0-7.9 1.8-13.9-1.2z"></path>
  <path class="x" d="m276 381.5c-5.4 1.9-9.1 3.5-9.1 3.5"></path>
  <path class="x" d="m284.8 378.7c10.8-3.3 23.8-6.2 31.1-4 13.9 4.2 52 25.4 52 25.4"></path>
  <path class="b" d="m547.5 498.4c0 0-1.9 12.6-4.3 14-2.3 1.4-2.1-11.7-2.1-11.7 0 0-2.9 7.6-4.7 9.4-1.8 1.8-0.7-7.7-0.7-7.7l2-9z"></path>
  <path class="b" d="m521.9 486l18.6 0.3c0 0 4.9 0.7 5.6 3.5 0.7 2.8 3.5 9.1 3.5 9.1l-28.7-8.4z"></path>
  <path class="b" d="m528.6 491.9c0 0 25.9-3.5 26.6-1.4 0.5 1.5 2.5 15.8 2.9 20.4 0.1 0.7-0.8 1.1-1.3 0.5l-7.2-12.5-19.6 1.4c0 0-5.6-4.9-1.4-8.4z"></path>
  <path class="w" d="m331.1 405.7c0 0 16.1-2.1 25.2 7 9.1 9.1 32.2 117.7 32.2 117.7 0 0 98.8-16.8 102.3-19.6 2.6-2.2 16.6-16.4 23.2-23.1 2-2.2 5.2-2.8 7.9-1.7 9.4 3.6 30.2 11.8 34 12.9 4.9 1.4 14.7 2.8 9.8 4.2-4.9 1.4-25.9-1.4-25.9-1.4 0 0-13.3 14.7-15.4 17.5-2.1 2.8-15.4 6.3-15.4 6.3 0 0-124.7 49.7-131.7 51.8-7 2.1-22.4 1.4-25.9-5.6-3.5-7-42.7-87.5-48.3-116.9-5.6-29.5 10.5-41.4 10.5-41.4"></path>
  <path class="b" d="m435.3 522.2c26.1-4.7 53.6-10 55.5-11.4 2.6-2.2 16.6-16.4 23.2-23.1 2-2.2 5.2-2.8 7.9-1.7 9.4 3.6 30.2 11.8 34 12.9 4.9 1.4 14.7 2.8 9.8 4.2-4.9 1.4-25.9-1.4-25.9-1.4 0 0-13.3 14.7-15.4 17.5-2.1 2.8-15.4 6.3-15.4 6.3 0 0-32.5 12.9-65.2 25.9z"></path>
  <path class="y" d="m243.7 692.5l-46 200.2c-0.6 2-3.6 1.2-3.2-0.9l30.5-202.6z"></path>
  <path class="y" d="m289.4 688.8l-2.3 202.6c-0.1 2.1-3.2 2.1-3.3 0.1l-13.3-201z"></path>
  <path class="y" d="m333.7 689.2l21.2 201.3c0.2 2.1-2.8 2.5-3.2 0.5l-36.4-197.5z"></path>
  <path class="y" d="m404.2 688.3l14.5 202c0.1 2.1-2.9 2.4-3.3 0.4l-29.8-198.8z"></path>
  <path class="b" d="m441.2 656.1c12.8 0-2.9 19.1-12.9 28.4-9.7 9.1-38.4 35.9-108.6 34.7-78.7-1.4-101.4-20-114.7-34.7-15.1-16.6-20.6-66.9-18.2-134.6 2.3-67.7 38.5-85.2 57.2-75.9 18.6 9.4 45.5 81.7 61.8 123.7 16.3 42 51.4 53.7 51.4 53.7 16.3 4.7 71.1 4.7 84 4.7z"></path>
  <path class="b" d="m13.3 893.9h931.6"></path>
</svg>
